<svg width="87" height="34" viewBox="0 0 87 34" fill="none" xmlns="http://www.w3.org/2000/svg">
<rect width="87" height="34" rx="5" fill="#612069"/>
<path d="M8.8 23.264V13.664C8.8 13.3973 8.864 13.1893 8.992 13.04C9.13067 12.88 9.30667 12.8 9.52 12.8H12.192C13.888 12.8 15.1733 13.2267 16.048 14.08C16.9333 14.9333 17.376 16.2773 17.376 18.112C17.376 22.0373 15.7013 24 12.352 24H9.616C9.072 24 8.8 23.7547 8.8 23.264ZM11.872 15.84V20.624C11.872 20.848 11.888 20.992 11.92 21.056C11.952 21.1093 12.048 21.136 12.208 21.136C12.7947 21.136 13.2373 20.9173 13.536 20.48C13.8453 20.0427 14 19.3173 14 18.304C14 17.28 13.84 16.6133 13.52 16.304C13.2107 15.9947 12.7147 15.84 12.032 15.84H11.872ZM36.1291 13.008C36.1291 12.9547 36.3585 12.9067 36.8171 12.864C37.2865 12.8107 37.6705 12.784 37.9691 12.784C39.1531 12.784 39.7718 12.9387 39.8251 13.248L41.2011 20.288L42.4971 13.248C42.5611 12.9387 43.2225 12.784 44.4811 12.784C44.7905 12.784 45.1798 12.8053 45.6491 12.848C46.1185 12.8907 46.3531 12.9387 46.3531 12.992L43.5211 23.584C43.4785 23.7547 43.1638 23.8667 42.5771 23.92C41.6705 24.016 40.8438 24.0373 40.0971 23.984C39.3611 23.92 38.9718 23.8133 38.9291 23.664L36.1291 13.008ZM50.3873 23.776C50.3873 23.9467 49.8806 24.032 48.8673 24.032C47.8433 24.032 47.3313 23.952 47.3313 23.792V13.36C47.3313 12.9867 47.5286 12.8 47.9233 12.8H50.9793C53.7846 12.8 55.1873 13.8933 55.1873 16.08C55.1873 16.7413 55.0593 17.344 54.8033 17.888C54.5473 18.4213 54.1846 18.848 53.7153 19.168L55.7313 22.528C55.6459 22.784 55.3686 23.0773 54.8993 23.408C54.2593 23.8667 53.7313 24.096 53.3153 24.096C52.8993 24.096 52.5899 23.9467 52.3873 23.648L50.8833 20.144H50.3873V23.776ZM50.3873 15.632V18.032H50.4673C51.4806 18.032 51.9873 17.6107 51.9873 16.768C51.9873 16.384 51.8859 16.1013 51.6833 15.92C51.4913 15.728 51.1713 15.632 50.7233 15.632H50.3873ZM57.8248 21.248V15.552H56.6888C56.5074 15.552 56.3794 15.3227 56.3048 14.864C56.2728 14.64 56.2568 14.4107 56.2568 14.176C56.2568 13.9413 56.2728 13.712 56.3048 13.488C56.3794 13.0293 56.5074 12.8 56.6888 12.8H62.0648C62.2461 12.8 62.3688 13.0293 62.4328 13.488C62.4754 13.712 62.4968 13.9413 62.4968 14.176C62.4968 14.4107 62.4754 14.64 62.4328 14.864C62.3688 15.3227 62.2461 15.552 62.0648 15.552H60.9928V21.248H62.1128C62.2941 21.248 62.4221 21.4773 62.4968 21.936C62.5394 22.16 62.5608 22.3893 62.5608 22.624C62.5608 22.8587 62.5394 23.088 62.4968 23.312C62.4221 23.7707 62.2941 24 62.1128 24H56.7208C56.5394 24 56.4168 23.7707 56.3528 23.312C56.3101 23.088 56.2888 22.8587 56.2888 22.624C56.2888 22.3893 56.3101 22.16 56.3528 21.936C56.4168 21.4773 56.5394 21.248 56.7208 21.248H57.8248ZM64.0441 20.096C64.2468 20.256 64.5935 20.4747 65.0841 20.752C65.5855 21.0293 66.0601 21.168 66.5081 21.168C66.9668 21.168 67.1961 20.992 67.1961 20.64C67.1961 20.48 67.1321 20.3413 67.0041 20.224C66.8761 20.096 66.6415 19.952 66.3001 19.792C65.9588 19.632 65.7028 19.5093 65.5321 19.424C65.3615 19.328 65.1321 19.1787 64.8441 18.976C64.5668 18.7627 64.3535 18.544 64.2041 18.32C63.7775 17.712 63.5641 16.9387 63.5641 16C63.5641 15.0613 63.9108 14.272 64.6041 13.632C65.3081 12.9813 66.2255 12.656 67.3561 12.656C68.1241 12.656 68.8335 12.7413 69.4841 12.912C70.1348 13.072 70.4708 13.2853 70.4921 13.552C70.4921 13.584 70.4921 13.616 70.4921 13.648C70.4921 14.0213 70.3748 14.496 70.1401 15.072C69.9055 15.6373 69.7401 15.952 69.6441 16.016C68.9615 15.664 68.3481 15.488 67.8041 15.488C67.2708 15.488 67.0041 15.68 67.0041 16.064C67.0041 16.2987 67.2015 16.5067 67.5961 16.688C67.6815 16.7307 67.8041 16.7893 67.9641 16.864C68.1241 16.9387 68.3055 17.0293 68.5081 17.136C68.7215 17.232 68.9455 17.36 69.1801 17.52C69.4255 17.6693 69.6868 17.872 69.9641 18.128C70.5295 18.6613 70.8121 19.3653 70.8121 20.24C70.8121 21.3813 70.4975 22.3147 69.8681 23.04C69.2388 23.7653 68.2681 24.1387 66.9561 24.16C66.3161 24.16 65.7348 24.1067 65.2121 24C64.7001 23.8933 64.2521 23.6853 63.8681 23.376C63.4841 23.0667 63.2921 22.6933 63.2921 22.256C63.2921 21.8187 63.3721 21.3867 63.5321 20.96C63.6921 20.5227 63.8628 20.2347 64.0441 20.096ZM77.3281 17.248C77.5308 17.248 77.6321 17.6213 77.6321 18.368C77.6321 18.592 77.6055 18.8587 77.5521 19.168C77.5095 19.4667 77.4241 19.616 77.2961 19.616H75.2641V21.216H78.2081C78.3895 21.216 78.5121 21.4507 78.5761 21.92C78.6081 22.1227 78.6241 22.3413 78.6241 22.576C78.6241 22.8 78.5921 23.0933 78.5281 23.456C78.4641 23.8187 78.3575 24 78.2081 24H72.7361C72.3308 24 72.1281 23.8347 72.1281 23.504V13.216C72.1281 12.9387 72.2508 12.8 72.4961 12.8H78.2241C78.4481 12.8 78.5601 13.2747 78.5601 14.224C78.5601 15.1627 78.4481 15.632 78.2241 15.632H75.2641V17.248H77.3281Z" fill="#F9CE92"/>
<ellipse cx="27" cy="17.5" rx="9" ry="8.5" fill="white"/>
<path d="M24.5 21.75L29.5 17.5L24.5 13.25" stroke="#303030" stroke-width="4" stroke-linecap="round" stroke-linejoin="round"/>
</svg>
