<svg width="113" height="44" viewBox="0 0 113 44" fill="none" xmlns="http://www.w3.org/2000/svg">
<rect width="113" height="44" rx="5" fill="#612069"/>
<path d="M13 29.08V17.08C13 16.7467 13.08 16.4867 13.24 16.3C13.4133 16.1 13.6333 16 13.9 16H17.24C19.36 16 20.9667 16.5333 22.06 17.6C23.1667 18.6667 23.72 20.3467 23.72 22.64C23.72 27.5467 21.6267 30 17.44 30H14.02C13.34 30 13 29.6933 13 29.08ZM16.84 19.8V25.78C16.84 26.06 16.86 26.24 16.9 26.32C16.94 26.3867 17.06 26.42 17.26 26.42C17.9933 26.42 18.5467 26.1467 18.92 25.6C19.3067 25.0533 19.5 24.1467 19.5 22.88C19.5 21.6 19.3 20.7667 18.9 20.38C18.5133 19.9933 17.8933 19.8 17.04 19.8H16.84ZM47.1614 16.26C47.1614 16.1933 47.4481 16.1333 48.0214 16.08C48.6081 16.0133 49.0881 15.98 49.4614 15.98C50.9414 15.98 51.7147 16.1733 51.7814 16.56L53.5014 25.36L55.1214 16.56C55.2014 16.1733 56.0281 15.98 57.6014 15.98C57.9881 15.98 58.4747 16.0067 59.0614 16.06C59.6481 16.1133 59.9414 16.1733 59.9414 16.24L56.4014 29.48C56.3481 29.6933 55.9547 29.8333 55.2214 29.9C54.0881 30.02 53.0547 30.0467 52.1214 29.98C51.2014 29.9 50.7147 29.7667 50.6614 29.58L47.1614 16.26ZM64.9841 29.72C64.9841 29.9333 64.3507 30.04 63.0841 30.04C61.8041 30.04 61.1641 29.94 61.1641 29.74V16.7C61.1641 16.2333 61.4107 16 61.9041 16H65.7241C69.2307 16 70.9841 17.3667 70.9841 20.1C70.9841 20.9267 70.8241 21.68 70.5041 22.36C70.1841 23.0267 69.7307 23.56 69.1441 23.96L71.6641 28.16C71.5574 28.48 71.2107 28.8467 70.6241 29.26C69.8241 29.8333 69.1641 30.12 68.6441 30.12C68.1241 30.12 67.7374 29.9333 67.4841 29.56L65.6041 25.18H64.9841V29.72ZM64.9841 19.54V22.54H65.0841C66.3507 22.54 66.9841 22.0133 66.9841 20.96C66.9841 20.48 66.8574 20.1267 66.6041 19.9C66.3641 19.66 65.9641 19.54 65.4041 19.54H64.9841ZM74.2809 26.56V19.44H72.8609C72.6343 19.44 72.4743 19.1533 72.3809 18.58C72.3409 18.3 72.3209 18.0133 72.3209 17.72C72.3209 17.4267 72.3409 17.14 72.3809 16.86C72.4743 16.2867 72.6343 16 72.8609 16H79.5809C79.8076 16 79.9609 16.2867 80.0409 16.86C80.0943 17.14 80.1209 17.4267 80.1209 17.72C80.1209 18.0133 80.0943 18.3 80.0409 18.58C79.9609 19.1533 79.8076 19.44 79.5809 19.44H78.2409V26.56H79.6409C79.8676 26.56 80.0276 26.8467 80.1209 27.42C80.1743 27.7 80.2009 27.9867 80.2009 28.28C80.2009 28.5733 80.1743 28.86 80.1209 29.14C80.0276 29.7133 79.8676 30 79.6409 30H72.9009C72.6743 30 72.5209 29.7133 72.4409 29.14C72.3876 28.86 72.3609 28.5733 72.3609 28.28C72.3609 27.9867 72.3876 27.7 72.4409 27.42C72.5209 26.8467 72.6743 26.56 72.9009 26.56H74.2809ZM82.0552 25.12C82.3085 25.32 82.7418 25.5933 83.3552 25.94C83.9818 26.2867 84.5752 26.46 85.1352 26.46C85.7085 26.46 85.9952 26.24 85.9952 25.8C85.9952 25.6 85.9152 25.4267 85.7552 25.28C85.5952 25.12 85.3018 24.94 84.8752 24.74C84.4485 24.54 84.1285 24.3867 83.9152 24.28C83.7018 24.16 83.4152 23.9733 83.0552 23.72C82.7085 23.4533 82.4418 23.18 82.2552 22.9C81.7218 22.14 81.4552 21.1733 81.4552 20C81.4552 18.8267 81.8885 17.84 82.7552 17.04C83.6352 16.2267 84.7818 15.82 86.1952 15.82C87.1552 15.82 88.0418 15.9267 88.8552 16.14C89.6685 16.34 90.0885 16.6067 90.1152 16.94C90.1152 16.98 90.1152 17.02 90.1152 17.06C90.1152 17.5267 89.9685 18.12 89.6752 18.84C89.3818 19.5467 89.1752 19.94 89.0552 20.02C88.2018 19.58 87.4352 19.36 86.7552 19.36C86.0885 19.36 85.7552 19.6 85.7552 20.08C85.7552 20.3733 86.0018 20.6333 86.4952 20.86C86.6018 20.9133 86.7552 20.9867 86.9552 21.08C87.1552 21.1733 87.3818 21.2867 87.6352 21.42C87.9018 21.54 88.1818 21.7 88.4752 21.9C88.7818 22.0867 89.1085 22.34 89.4552 22.66C90.1618 23.3267 90.5152 24.2067 90.5152 25.3C90.5152 26.7267 90.1218 27.8933 89.3352 28.8C88.5485 29.7067 87.3352 30.1733 85.6952 30.2C84.8952 30.2 84.1685 30.1333 83.5152 30C82.8752 29.8667 82.3152 29.6067 81.8352 29.22C81.3552 28.8333 81.1152 28.3667 81.1152 27.82C81.1152 27.2733 81.2152 26.7333 81.4152 26.2C81.6152 25.6533 81.8285 25.2933 82.0552 25.12ZM98.6602 21.56C98.9135 21.56 99.0402 22.0267 99.0402 22.96C99.0402 23.24 99.0068 23.5733 98.9402 23.96C98.8868 24.3333 98.7802 24.52 98.6202 24.52H96.0802V26.52H99.7602C99.9868 26.52 100.14 26.8133 100.22 27.4C100.26 27.6533 100.28 27.9267 100.28 28.22C100.28 28.5 100.24 28.8667 100.16 29.32C100.08 29.7733 99.9468 30 99.7602 30H92.9202C92.4135 30 92.1602 29.7933 92.1602 29.38V16.52C92.1602 16.1733 92.3135 16 92.6202 16H99.7802C100.06 16 100.2 16.5933 100.2 17.78C100.2 18.9533 100.06 19.54 99.7802 19.54H96.0802V21.56H98.6602Z" fill="#F9CE92"/>
<ellipse cx="35.5" cy="22" rx="11.5" ry="11" fill="white"/>
<path d="M33 27.25L39 22.5L33 17.75" stroke="#303030" stroke-width="4" stroke-linecap="round" stroke-linejoin="round"/>
</svg>
