<svg width="93" height="22" viewBox="0 0 93 22" fill="none" xmlns="http://www.w3.org/2000/svg">
<path d="M1 18.08V6.08C1 5.74667 1.08 5.48667 1.24 5.3C1.41333 5.1 1.63333 5 1.9 5H5.24C7.36 5 8.96667 5.53333 10.06 6.6C11.1667 7.66667 11.72 9.34667 11.72 11.64C11.72 16.5467 9.62667 19 5.44 19H2.02C1.34 19 1 18.6933 1 18.08ZM4.84 8.8V14.78C4.84 15.06 4.86 15.24 4.9 15.32C4.94 15.3867 5.06 15.42 5.26 15.42C5.99333 15.42 6.54667 15.1467 6.92 14.6C7.30667 14.0533 7.5 13.1467 7.5 11.88C7.5 10.6 7.3 9.76667 6.9 9.38C6.51333 8.99333 5.89333 8.8 5.04 8.8H4.84ZM35.1614 5.26C35.1614 5.19333 35.4481 5.13333 36.0214 5.08C36.6081 5.01333 37.0881 4.98 37.4614 4.98C38.9414 4.98 39.7147 5.17333 39.7814 5.56L41.5014 14.36L43.1214 5.56C43.2014 5.17333 44.0281 4.98 45.6014 4.98C45.9881 4.98 46.4747 5.00667 47.0614 5.06C47.6481 5.11333 47.9414 5.17333 47.9414 5.24L44.4014 18.48C44.3481 18.6933 43.9547 18.8333 43.2214 18.9C42.0881 19.02 41.0547 19.0467 40.1214 18.98C39.2014 18.9 38.7147 18.7667 38.6614 18.58L35.1614 5.26ZM52.9841 18.72C52.9841 18.9333 52.3507 19.04 51.0841 19.04C49.8041 19.04 49.1641 18.94 49.1641 18.74V5.7C49.1641 5.23333 49.4107 5 49.9041 5H53.7241C57.2307 5 58.9841 6.36667 58.9841 9.1C58.9841 9.92667 58.8241 10.68 58.5041 11.36C58.1841 12.0267 57.7307 12.56 57.1441 12.96L59.6641 17.16C59.5574 17.48 59.2107 17.8467 58.6241 18.26C57.8241 18.8333 57.1641 19.12 56.6441 19.12C56.1241 19.12 55.7374 18.9333 55.4841 18.56L53.6041 14.18H52.9841V18.72ZM52.9841 8.54V11.54H53.0841C54.3507 11.54 54.9841 11.0133 54.9841 9.96C54.9841 9.48 54.8574 9.12667 54.6041 8.9C54.3641 8.66 53.9641 8.54 53.4041 8.54H52.9841ZM62.2809 15.56V8.44H60.8609C60.6343 8.44 60.4743 8.15333 60.3809 7.58C60.3409 7.3 60.3209 7.01333 60.3209 6.72C60.3209 6.42667 60.3409 6.14 60.3809 5.86C60.4743 5.28667 60.6343 5 60.8609 5H67.5809C67.8076 5 67.9609 5.28667 68.0409 5.86C68.0943 6.14 68.1209 6.42667 68.1209 6.72C68.1209 7.01333 68.0943 7.3 68.0409 7.58C67.9609 8.15333 67.8076 8.44 67.5809 8.44H66.2409V15.56H67.6409C67.8676 15.56 68.0276 15.8467 68.1209 16.42C68.1743 16.7 68.2009 16.9867 68.2009 17.28C68.2009 17.5733 68.1743 17.86 68.1209 18.14C68.0276 18.7133 67.8676 19 67.6409 19H60.9009C60.6743 19 60.5209 18.7133 60.4409 18.14C60.3876 17.86 60.3609 17.5733 60.3609 17.28C60.3609 16.9867 60.3876 16.7 60.4409 16.42C60.5209 15.8467 60.6743 15.56 60.9009 15.56H62.2809ZM70.0552 14.12C70.3085 14.32 70.7418 14.5933 71.3552 14.94C71.9818 15.2867 72.5752 15.46 73.1352 15.46C73.7085 15.46 73.9952 15.24 73.9952 14.8C73.9952 14.6 73.9152 14.4267 73.7552 14.28C73.5952 14.12 73.3018 13.94 72.8752 13.74C72.4485 13.54 72.1285 13.3867 71.9152 13.28C71.7018 13.16 71.4152 12.9733 71.0552 12.72C70.7085 12.4533 70.4418 12.18 70.2552 11.9C69.7218 11.14 69.4552 10.1733 69.4552 9C69.4552 7.82667 69.8885 6.84 70.7552 6.04C71.6352 5.22667 72.7818 4.82 74.1952 4.82C75.1552 4.82 76.0418 4.92667 76.8552 5.14C77.6685 5.34 78.0885 5.60667 78.1152 5.94C78.1152 5.98 78.1152 6.02 78.1152 6.06C78.1152 6.52667 77.9685 7.12 77.6752 7.84C77.3818 8.54667 77.1752 8.94 77.0552 9.02C76.2018 8.58 75.4352 8.36 74.7552 8.36C74.0885 8.36 73.7552 8.6 73.7552 9.08C73.7552 9.37333 74.0018 9.63333 74.4952 9.86C74.6018 9.91333 74.7552 9.98667 74.9552 10.08C75.1552 10.1733 75.3818 10.2867 75.6352 10.42C75.9018 10.54 76.1818 10.7 76.4752 10.9C76.7818 11.0867 77.1085 11.34 77.4552 11.66C78.1618 12.3267 78.5152 13.2067 78.5152 14.3C78.5152 15.7267 78.1218 16.8933 77.3352 17.8C76.5485 18.7067 75.3352 19.1733 73.6952 19.2C72.8952 19.2 72.1685 19.1333 71.5152 19C70.8752 18.8667 70.3152 18.6067 69.8352 18.22C69.3552 17.8333 69.1152 17.3667 69.1152 16.82C69.1152 16.2733 69.2152 15.7333 69.4152 15.2C69.6152 14.6533 69.8285 14.2933 70.0552 14.12ZM86.6602 10.56C86.9135 10.56 87.0402 11.0267 87.0402 11.96C87.0402 12.24 87.0068 12.5733 86.9402 12.96C86.8868 13.3333 86.7802 13.52 86.6202 13.52H84.0802V15.52H87.7602C87.9868 15.52 88.1402 15.8133 88.2202 16.4C88.2602 16.6533 88.2802 16.9267 88.2802 17.22C88.2802 17.5 88.2402 17.8667 88.1602 18.32C88.0802 18.7733 87.9468 19 87.7602 19H80.9202C80.4135 19 80.1602 18.7933 80.1602 18.38V5.52C80.1602 5.17333 80.3135 5 80.6202 5H87.7802C88.0602 5 88.2002 5.59333 88.2002 6.78C88.2002 7.95333 88.0602 8.54 87.7802 8.54H84.0802V10.56H86.6602Z" fill="#612069"/>
<ellipse cx="23.5" cy="11" rx="11.5" ry="11" fill="#F9CE92"/>
<path d="M21 16.25L27 11.5L21 6.75" stroke="#303030" stroke-width="4" stroke-linecap="round" stroke-linejoin="round"/>
</svg>
